<!DOCTYPE svg PUBLIC "-//W3C//DTD SVG 1.1//EN" "http://www.w3.org/Graphics/SVG/1.1/DTD/svg11.dtd">
<!-- Uploaded to: SVG Repo, www.svgrepo.com, Transformed by: SVG Repo Mixer Tools -->
<svg version="1.1" id="Layer_1" xmlns="http://www.w3.org/2000/svg" xmlns:xlink="http://www.w3.org/1999/xlink" viewBox="0 0 512 512" xml:space="preserve" width="800px" height="800px" fill="#000000">
<g id="SVGRepo_bgCarrier" stroke-width="0"/>
<g id="SVGRepo_tracerCarrier" stroke-linecap="round" stroke-linejoin="round"/>
<g id="SVGRepo_iconCarrier"> <path style="fill:#C4D3D9;" d="M423.338,24.774H191.005c-28.842,0-52.305,23.463-52.305,52.301v198.194h16.516V77.075 c0-19.732,16.055-35.785,35.789-35.785h232.333c19.732,0,35.785,16.053,35.785,35.785v198.194h16.516V77.075 C475.639,48.237,452.176,24.774,423.338,24.774z"/> <polygon style="fill:#414D53;" points="406.818,13.761 406.818,52.299 373.785,52.299 340.753,33.03 373.785,13.761 "/> <rect x="287.909" y="118.366" style="fill:#57676E;" width="38.538" height="66.065"/> <path style="fill:#414D53;" d="M331.953,126.624h-49.548c-4.562,0-8.258-3.696-8.258-8.258s3.696-8.258,8.258-8.258h49.548 c4.562,0,8.258,3.696,8.258,8.258S336.515,126.624,331.953,126.624z"/> <path style="fill:#1a1a1a;" d="M362.786,162.406h-33.032v99.097h77.086v-55.054C406.84,182.226,387.02,162.406,362.786,162.406z"/> <path style="fill:#9c9c8b;" d="M329.753,162.406h-78.187c-24.224,0-44.043,19.819-44.043,44.043v55.054h166.284v-55.054 C373.807,182.226,353.988,162.406,329.753,162.406z"/> <g> <path style="fill:#9c9c8b;" d="M406.84,228.471h-44.043l88.097,275.269h44.043V316.557 C494.937,268.11,455.287,228.471,406.84,228.471z"/> <path style="fill:#9c9c8b;" d="M119.426,321.325l77.075,88.67h-81.425c-9.789,0-19.621-2.521-28.683-6.926L64.372,300.801h23.046 C93.969,311.635,106.995,320.08,119.426,321.325z"/> </g> <g> <path style="fill:#1a1a1a;" d="M87.418,300.801c-0.672,5.153-1.024,10.416-1.024,15.756v86.512 c-18.95-9.205-34.53-26.668-39.363-46.575L15.969,228.471l45.739,8.26l23.255,59.137C85.623,297.552,86.449,299.204,87.418,300.801 z"/> <path style="fill:#1a1a1a;" d="M362.797,228.471H207.523c-48.458,0-88.097,39.639-88.097,88.086V503.74h331.468V316.557 C450.894,268.11,411.244,228.471,362.797,228.471z"/> </g> <rect x="207.52" y="13.761" style="fill:#57676E;" width="166.262" height="38.538"/> <path style="fill:#C4D3D9;" d="M494.933,512H119.426c-4.561,0-8.258-3.696-8.258-8.258s3.697-8.258,8.258-8.258h375.507 c4.562,0,8.258,3.696,8.258,8.258S499.495,512,494.933,512z"/> <g> <path style="fill:#414D53;" d="M17.067,220.215c-4.561,0-8.258,3.696-8.258,8.258c0,4.562,3.697,8.258,8.258,8.258h44.641 l-6.495-16.516H17.067z"/> <path style="fill:#414D53;" d="M406.269,66.065c-4.562,0-8.258-3.696-8.258-8.258V8.258c0-4.562,3.696-8.258,8.258-8.258 s8.258,3.696,8.258,8.258v49.548C414.527,62.368,410.83,66.065,406.269,66.065z"/> <path style="fill:#414D53;" d="M208.076,66.065c-4.561,0-8.258-3.696-8.258-8.258V8.258c0-4.562,3.697-8.258,8.258-8.258 s8.258,3.696,8.258,8.258v49.548C216.334,62.368,212.636,66.065,208.076,66.065z"/> </g> </g>
</svg>